# xmcd
#
# Track frame offsets: 
#        150
#        12455
#        28810
#        43015
#        54302
#        76570
#        95877
#        111708
#        125769
#
# Disc length: 1838 seconds
#
# Revision: 0
# Processed by: cddbd v1.5.2PL0 Copyright (c) Steve Scherf et al.
# Submitted via: ExactAudioCopy v0.99pb5
#
DISCID=79072c09
DTITLE=Mirel Wagner - Mirel Wagner
DYEAR=2011
DGENRE=Blues
TTITLE0=To The Bone
TTITLE1=The Well
TTITLE2=No Death
TTITLE3=No Hands
TTITLE4=Red
TTITLE5=Despair
TTITLE6=Joe
TTITLE7=Dream
TTITLE8=The Road
EXTD=
EXTT0=
EXTT1=
EXTT2=
EXTT3=
EXTT4=
EXTT5=
EXTT6=
EXTT7=
EXTT8=
PLAYORDER=
